<svg xmlns="http://www.w3.org/2000/svg" width="219" height="34" viewBox="0 0 219 34" fill="none"><path d="M78.0215 21.723C78.5415 21.7057 79.0182 21.6624 79.4515 21.593C79.9022 21.5064 80.3182 21.3677 80.6995 21.177L81.2975 17.719H77.7095L78.3595 14.157H85.9255L84.2355 23.881C83.2995 24.3664 82.2422 24.7564 81.0635 25.051C79.9022 25.3457 78.6975 25.493 77.4495 25.493C76.1322 25.493 74.9275 25.311 73.8355 24.947C72.7608 24.5657 71.8422 24.0284 71.0795 23.335C70.3168 22.6417 69.7188 21.801 69.2855 20.813C68.8695 19.825 68.6615 18.7157 68.6615 17.485C68.6615 15.9077 68.9302 14.4257 69.4675 13.039C70.0222 11.6524 70.7848 10.4477 71.7555 9.42502C72.7435 8.38502 73.8962 7.57036 75.2135 6.98102C76.5482 6.39169 77.9955 6.09702 79.5555 6.09702C81.0115 6.09702 82.3288 6.33102 83.5075 6.79902C84.7035 7.24969 85.6395 7.92569 86.3155 8.82702L83.1695 11.661C82.8228 11.1584 82.3462 10.7424 81.7395 10.413C81.1502 10.0664 80.3962 9.89302 79.4775 9.89302C78.5762 9.89302 77.7355 10.0837 76.9555 10.465C76.1928 10.8464 75.5255 11.3664 74.9535 12.025C74.3988 12.6664 73.9568 13.4204 73.6275 14.287C73.3155 15.1364 73.1595 16.0377 73.1595 16.991C73.1595 17.667 73.2635 18.2997 73.4715 18.889C73.6795 19.461 73.9915 19.9637 74.4075 20.397C74.8235 20.813 75.3348 21.1424 75.9415 21.385C76.5482 21.6104 77.2415 21.723 78.0215 21.723ZM86.8968 24.999L90.3548 5.34302H94.5928L91.1088 24.999H86.8968ZM106.949 15.847C106.949 16.0897 106.932 16.3497 106.897 16.627C106.88 16.9044 106.845 17.173 106.793 17.433L105.909 22.477C105.823 22.9277 105.753 23.387 105.701 23.855C105.667 24.323 105.649 24.7044 105.649 24.999H101.957C101.957 24.8084 101.966 24.5917 101.983 24.349C102.001 24.089 102.027 23.8464 102.061 23.621H102.009C101.056 24.7477 99.7387 25.311 98.0574 25.311C97.6067 25.311 97.1387 25.2504 96.6534 25.129C96.1854 25.025 95.7521 24.843 95.3534 24.583C94.9721 24.3057 94.6601 23.9504 94.4174 23.517C94.1747 23.0664 94.0534 22.5204 94.0534 21.879C94.0534 20.839 94.3134 19.9897 94.8334 19.331C95.3534 18.6724 96.0294 18.161 96.8614 17.797C97.7107 17.433 98.6641 17.1817 99.7214 17.043C100.796 16.9044 101.871 16.835 102.945 16.835C102.98 16.679 102.997 16.5577 102.997 16.471C102.997 16.3844 102.997 16.3064 102.997 16.237C102.997 15.7344 102.815 15.3704 102.451 15.145C102.105 14.9024 101.611 14.781 100.969 14.781C100.38 14.781 99.7821 14.8937 99.1754 15.119C98.5861 15.3444 98.0487 15.639 97.5634 16.003L95.8474 13.611C96.6274 12.987 97.5201 12.5104 98.5254 12.181C99.5481 11.8344 100.553 11.661 101.541 11.661C102.321 11.661 103.041 11.7477 103.699 11.921C104.358 12.077 104.921 12.3284 105.389 12.675C105.875 13.0217 106.256 13.455 106.533 13.975C106.811 14.495 106.949 15.119 106.949 15.847ZM102.347 19.331C101.827 19.331 101.299 19.357 100.761 19.409C100.224 19.4437 99.7387 19.5304 99.3054 19.669C98.8894 19.8077 98.5427 19.9984 98.2654 20.241C97.9881 20.4837 97.8494 20.8044 97.8494 21.203C97.8494 21.723 98.0227 22.0784 98.3694 22.269C98.7334 22.4424 99.1321 22.529 99.5654 22.529C100.363 22.529 101.03 22.2864 101.567 21.801C102.105 21.2984 102.443 20.683 102.581 19.955L102.711 19.331H102.347ZM109.73 20.865C110.059 21.3504 110.492 21.723 111.03 21.983C111.584 22.2257 112.148 22.347 112.72 22.347C113.274 22.347 113.716 22.243 114.046 22.035C114.392 21.827 114.566 21.541 114.566 21.177C114.566 20.8304 114.41 20.5617 114.098 20.371C113.786 20.1804 113.326 19.9897 112.72 19.799C112.113 19.6257 111.576 19.435 111.108 19.227C110.657 19.0017 110.276 18.7504 109.964 18.473C109.652 18.1784 109.418 17.849 109.262 17.485C109.106 17.1037 109.028 16.6617 109.028 16.159C109.028 15.4484 109.184 14.8157 109.496 14.261C109.825 13.7064 110.25 13.2384 110.77 12.857C111.307 12.4584 111.931 12.1637 112.642 11.973C113.352 11.765 114.098 11.661 114.878 11.661C115.883 11.661 116.819 11.8344 117.686 12.181C118.57 12.5104 119.272 13.0044 119.792 13.663L117.166 15.873C116.923 15.5264 116.585 15.2404 116.152 15.015C115.736 14.7897 115.233 14.677 114.644 14.677C114.193 14.677 113.777 14.7637 113.396 14.937C113.032 15.1104 112.85 15.405 112.85 15.821C112.85 16.1157 112.988 16.3497 113.266 16.523C113.543 16.679 113.968 16.835 114.54 16.991C115.753 17.3204 116.706 17.7797 117.4 18.369C118.11 18.941 118.466 19.7817 118.466 20.891C118.466 21.671 118.292 22.3557 117.946 22.945C117.616 23.517 117.174 23.9937 116.62 24.375C116.082 24.739 115.458 25.0077 114.748 25.181C114.054 25.3717 113.344 25.467 112.616 25.467C111.42 25.467 110.354 25.2677 109.418 24.869C108.482 24.4704 107.719 23.9244 107.13 23.231L109.73 20.865ZM126.687 25.363C125.751 25.363 124.875 25.233 124.061 24.973C123.263 24.713 122.57 24.3404 121.981 23.855C121.409 23.3524 120.949 22.7544 120.603 22.061C120.273 21.3504 120.109 20.553 120.109 19.669C120.109 18.5944 120.291 17.5717 120.655 16.601C121.019 15.6304 121.539 14.781 122.215 14.053C122.908 13.325 123.74 12.7444 124.711 12.311C125.681 11.8777 126.782 11.661 128.013 11.661C128.966 11.661 129.85 11.791 130.665 12.051C131.479 12.311 132.181 12.6924 132.771 13.195C133.36 13.6804 133.819 14.2784 134.149 14.989C134.495 15.6824 134.669 16.471 134.669 17.355C134.669 18.447 134.487 19.4784 134.123 20.449C133.759 21.4197 133.23 22.269 132.537 22.997C131.843 23.725 131.003 24.3057 130.015 24.739C129.044 25.155 127.935 25.363 126.687 25.363ZM130.561 17.797C130.561 17.017 130.318 16.367 129.833 15.847C129.365 15.327 128.697 15.067 127.831 15.067C127.276 15.067 126.773 15.1797 126.323 15.405C125.872 15.6304 125.491 15.9337 125.179 16.315C124.867 16.6964 124.624 17.1384 124.451 17.641C124.277 18.1437 124.191 18.6724 124.191 19.227C124.191 20.007 124.425 20.657 124.893 21.177C125.361 21.6797 126.028 21.931 126.895 21.931C127.449 21.931 127.952 21.827 128.403 21.619C128.853 21.3937 129.235 21.0904 129.547 20.709C129.876 20.3277 130.127 19.8857 130.301 19.383C130.474 18.8804 130.561 18.3517 130.561 17.797ZM141.697 13.923C142.113 13.2817 142.667 12.753 143.361 12.337C144.054 11.921 144.851 11.713 145.753 11.713C146.481 11.713 147.105 11.817 147.625 12.025C148.145 12.233 148.569 12.519 148.899 12.883C149.245 13.247 149.497 13.6717 149.653 14.157C149.809 14.625 149.887 15.119 149.887 15.639C149.887 15.8817 149.878 16.1244 149.861 16.367C149.843 16.5924 149.809 16.8177 149.757 17.043L148.353 24.999H144.193L145.415 17.979C145.501 17.5804 145.545 17.2164 145.545 16.887C145.545 16.4017 145.415 15.9944 145.155 15.665C144.912 15.3184 144.47 15.145 143.829 15.145C143.447 15.145 143.101 15.223 142.789 15.379C142.494 15.5177 142.225 15.717 141.983 15.977C141.757 16.237 141.567 16.5404 141.411 16.887C141.272 17.2337 141.168 17.5977 141.099 17.979L139.851 24.999H135.691L137.485 14.729C137.554 14.3997 137.623 13.975 137.693 13.455C137.779 12.935 137.84 12.467 137.875 12.051H141.853C141.835 12.259 141.801 12.5537 141.749 12.935C141.714 13.3164 141.679 13.6457 141.645 13.923H141.697Z" fill="#A9B0CB"></path></svg>