<svg xmlns="http://www.w3.org/2000/svg" id="b3e601bd-aecf-4828-b9f1-16e46507efd3" data-name="Layer 1" width="261.0726" height="136.9995" viewBox="0 0 261.0726 136.9995"><rect width="12.9245" height="12.9245"></rect><rect x="31.0203" width="12.9245" height="12.9245"></rect><rect x="62.0391" width="12.9245" height="12.9245"></rect><rect x="93.0577" width="12.9245" height="12.9245"></rect><rect x="124.0751" width="12.9245" height="12.9245"></rect><rect x="155.0941" width="12.9245" height="12.9245"></rect><rect x="186.1121" width="12.9245" height="12.9245"></rect><rect x="217.1331" width="12.9245" height="12.9245"></rect><rect x="248.1481" width="12.9245" height="12.9245"></rect><rect y="31.0203" width="12.9245" height="12.9245"></rect><rect x="31.0203" y="31.0203" width="12.9245" height="12.9245"></rect><rect x="62.0391" y="31.0195" width="12.9245" height="12.9245"></rect><rect x="93.0577" y="31.0203" width="12.9245" height="12.9245"></rect><rect x="124.0751" y="31.0203" width="12.9245" height="12.9245"></rect><rect x="155.0941" y="31.0195" width="12.9245" height="12.9245"></rect><rect x="186.1121" y="31.0203" width="12.9245" height="12.9245"></rect><rect x="217.1331" y="31.0203" width="12.9245" height="12.9245"></rect><rect x="248.1481" y="31.0195" width="12.9245" height="12.9245"></rect><rect y="62.0391" width="12.9245" height="12.9245"></rect><rect x="31.0195" y="62.0391" width="12.9245" height="12.9245"></rect><rect x="62.0391" y="62.0391" width="12.9245" height="12.9245"></rect><rect x="93.0585" y="62.0391" width="12.9245" height="12.9245"></rect><rect x="124.074" y="62.0391" width="12.9245" height="12.9245"></rect><rect x="155.0941" y="62.0391" width="12.9245" height="12.9245"></rect><rect x="186.113" y="62.0391" width="12.9245" height="12.9245"></rect><rect x="217.1331" y="62.0391" width="12.9245" height="12.9245"></rect><rect x="248.1481" y="62.0391" width="12.9245" height="12.9245"></rect><rect y="93.0576" width="12.9245" height="12.9245"></rect><rect x="31.0203" y="93.0576" width="12.9245" height="12.9245"></rect><rect x="62.0391" y="93.0586" width="12.9245" height="12.9245"></rect><rect x="93.0577" y="93.0576" width="12.9245" height="12.9245"></rect><rect x="124.0751" y="93.0576" width="12.9245" height="12.9245"></rect><rect x="155.0941" y="93.0586" width="12.9245" height="12.9245"></rect><rect x="186.1121" y="93.0576" width="12.9245" height="12.9245"></rect><rect x="217.1331" y="93.0576" width="12.9245" height="12.9245"></rect><rect x="248.1481" y="93.0586" width="12.9245" height="12.9245"></rect><rect y="124.075" width="12.9245" height="12.9245"></rect><rect x="31.0203" y="124.075" width="12.9245" height="12.9245"></rect><rect x="62.0391" y="124.074" width="12.9245" height="12.9245"></rect><rect x="93.0577" y="124.075" width="12.9245" height="12.9245"></rect><rect x="124.0751" y="124.075" width="12.9245" height="12.9245"></rect><rect x="155.0941" y="124.074" width="12.9245" height="12.9245"></rect><rect x="186.1121" y="124.075" width="12.9245" height="12.9245"></rect><rect x="217.1331" y="124.075" width="12.9245" height="12.9245"></rect><rect x="248.1481" y="124.074" width="12.9245" height="12.9245"></rect></svg>