<svg xmlns="http://www.w3.org/2000/svg" width="147" height="34" viewBox="0 0 147 34" fill="none"><path d="M22.7683 18.327C24.6576 18.4137 26.105 18.8297 27.1103 19.575C28.1156 20.3204 28.6183 21.2564 28.6183 22.383C28.6183 23.579 28.2543 24.6017 27.5263 25.451C26.7983 26.283 25.7843 26.9157 24.4843 27.349C23.2016 27.7824 21.7283 27.999 20.0643 27.999L18.5563 27.973C17.4816 27.9384 16.4676 27.921 15.5143 27.921C13.7636 27.921 12.4203 27.947 11.4843 27.999L11.5883 27.479C12.2123 27.4444 12.6803 27.375 12.9923 27.271C13.3043 27.167 13.5469 26.9677 13.7203 26.673C13.9109 26.3784 14.0929 25.9017 14.2663 25.243L17.6983 12.347C17.8369 11.7924 17.9063 11.3764 17.9063 11.099C17.9063 10.7697 17.7763 10.527 17.5163 10.371C17.2736 10.215 16.8229 10.1284 16.1643 10.111L16.2943 9.59102C17.2129 9.64302 18.5303 9.66902 20.2463 9.66902L22.4563 9.64302C22.8203 9.62569 23.3489 9.61702 24.0423 9.61702C25.9836 9.61702 27.4223 9.92036 28.3583 10.527C29.2943 11.1164 29.7623 11.957 29.7623 13.049C29.7623 13.9504 29.4676 14.7824 28.8783 15.545C28.3063 16.2904 27.4916 16.9057 26.4343 17.391C25.377 17.8764 24.1549 18.1884 22.7683 18.327ZM23.6783 10.111C23.1583 10.111 22.7769 10.2324 22.5343 10.475C22.3089 10.7177 22.1009 11.2117 21.9103 11.957L20.2463 18.223H21.1563C22.0923 18.223 22.8983 17.963 23.5743 17.443C24.2676 16.923 24.7876 16.2384 25.1343 15.389C25.4983 14.5224 25.6803 13.6037 25.6803 12.633C25.6803 11.8184 25.5243 11.1944 25.2123 10.761C24.9176 10.3277 24.4063 10.111 23.6783 10.111ZM19.4403 27.401C20.4629 27.401 21.3383 27.1584 22.0663 26.673C22.7943 26.1877 23.3403 25.529 23.7043 24.697C24.0856 23.865 24.2763 22.9377 24.2763 21.915C24.2763 20.927 24.0336 20.1384 23.5483 19.549C23.0803 18.9597 22.3263 18.665 21.2863 18.665H20.1423L18.4003 25.243C18.2616 25.8324 18.1923 26.2224 18.1923 26.413C18.1923 26.7424 18.2876 26.9937 18.4783 27.167C18.6689 27.323 18.9896 27.401 19.4403 27.401ZM42.6594 23.787H43.1534L42.5034 25.685C42.1568 26.6557 41.6714 27.349 41.0474 27.765C40.4408 28.1637 39.7821 28.363 39.0714 28.363C38.1701 28.363 37.5288 28.0944 37.1474 27.557C36.9048 27.245 36.7834 26.8117 36.7834 26.257C36.7834 25.8064 36.8614 25.295 37.0174 24.723C36.4281 26.0057 35.7694 26.933 35.0414 27.505C34.3308 28.077 33.5421 28.363 32.6754 28.363C31.7221 28.363 30.9941 28.0857 30.4914 27.531C30.0061 26.959 29.7634 26.1704 29.7634 25.165C29.7634 23.6224 30.1708 21.993 30.9854 20.277C31.8174 18.5437 32.8661 17.0964 34.1314 15.935C35.3968 14.7737 36.6361 14.193 37.8494 14.193C38.3174 14.193 38.6901 14.3317 38.9674 14.609C39.2621 14.8864 39.4354 15.3024 39.4874 15.857L39.8514 14.583C41.2381 14.5657 42.4948 14.4357 43.6214 14.193L40.2154 25.789C40.1288 26.0837 40.0854 26.3264 40.0854 26.517C40.0854 26.8984 40.2501 27.089 40.5794 27.089C41.1861 27.089 41.7234 26.4044 42.1914 25.035L42.6594 23.787ZM39.2014 16.871C39.2188 16.7844 39.2274 16.6544 39.2274 16.481C39.2274 16.0477 39.1494 15.7184 38.9934 15.493C38.8548 15.2677 38.6381 15.155 38.3434 15.155C37.7541 15.155 37.0781 15.6837 36.3154 16.741C35.5701 17.7984 34.9288 19.1244 34.3914 20.719C33.8714 22.3137 33.6114 23.8564 33.6114 25.347C33.6114 25.919 33.6634 26.335 33.7674 26.595C33.8888 26.8377 34.0794 26.959 34.3394 26.959C34.7208 26.959 35.1368 26.699 35.5874 26.179C36.0554 25.6417 36.5148 24.879 36.9654 23.891C37.4334 22.8857 37.8408 21.6984 38.1874 20.329L38.0574 20.953L39.2014 16.871ZM54.6961 14.193C55.3548 14.193 55.8661 14.3924 56.2301 14.791C56.6115 15.1724 56.8021 15.675 56.8021 16.299C56.8021 17.0444 56.5595 17.6857 56.0741 18.223C55.6061 18.743 55.0255 19.003 54.3321 19.003C53.8295 19.003 53.4395 18.873 53.1621 18.613C52.8848 18.3357 52.7461 17.9457 52.7461 17.443C52.7461 16.8364 52.9541 16.2904 53.3701 15.805C53.7861 15.3024 54.2975 14.9817 54.9041 14.843C54.8695 14.843 54.8175 14.8344 54.7481 14.817C54.6788 14.7824 54.6181 14.765 54.5661 14.765C53.6821 14.765 52.7808 15.4064 51.8621 16.689C50.9435 17.9717 50.0075 20.2597 49.0541 23.553L47.9101 27.999H44.2441L47.4161 16.767C47.5028 16.4897 47.5461 16.221 47.5461 15.961C47.5461 15.6317 47.4075 15.467 47.1301 15.467C46.8008 15.467 46.5061 15.623 46.2461 15.935C45.9861 16.247 45.7175 16.7757 45.4401 17.521L44.9461 18.847H44.4521L45.1541 16.871C45.7955 15.0857 46.9915 14.193 48.7421 14.193C50.0768 14.193 50.7441 14.895 50.7441 16.299C50.7441 16.8017 50.6748 17.313 50.5361 17.833L50.3281 18.665C50.9695 17.0184 51.6195 15.8657 52.2781 15.207C52.9541 14.531 53.7601 14.193 54.6961 14.193ZM59.8977 25.789C59.8457 25.9624 59.8197 26.1357 59.8197 26.309C59.8197 26.569 59.889 26.7684 60.0277 26.907C60.1664 27.0284 60.357 27.089 60.5997 27.089C60.981 27.089 61.345 26.907 61.6917 26.543C62.0557 26.1617 62.3764 25.5984 62.6537 24.853L63.0437 23.787H63.5377L63.0177 25.295C62.3417 27.3404 61.0417 28.363 59.1177 28.363C58.2337 28.363 57.5664 28.1377 57.1157 27.687C56.6824 27.219 56.4657 26.5864 56.4657 25.789C56.4657 25.2864 56.5437 24.7664 56.6997 24.229L59.3257 15.077H56.9857L57.1157 14.557H59.4817L60.5997 10.683C62.073 10.6657 63.3297 10.5444 64.3697 10.319L63.1477 14.557H66.0857L66.0077 15.077H62.9917L59.8977 25.789ZM76.5344 16.247C76.5344 17.6857 75.7284 18.9424 74.1164 20.017C72.5044 21.0917 70.6324 21.9237 68.5004 22.513C68.3964 23.1024 68.3444 23.6917 68.3444 24.281C68.3444 25.1997 68.5091 25.8497 68.8384 26.231C69.1851 26.6124 69.6877 26.803 70.3464 26.803C70.8837 26.803 71.4904 26.6384 72.1664 26.309C72.8424 25.9624 73.5011 25.4164 74.1424 24.671L74.5584 24.879C73.9344 25.8497 73.0937 26.673 72.0364 27.349C70.9964 28.025 69.8264 28.363 68.5264 28.363C67.3304 28.363 66.3511 28.0424 65.5884 27.401C64.8257 26.7597 64.4444 25.8584 64.4444 24.697C64.4444 23.1544 64.8604 21.5597 65.6924 19.913C66.5244 18.2664 67.6597 16.9057 69.0984 15.831C70.5371 14.739 72.1144 14.193 73.8304 14.193C74.6277 14.193 75.2777 14.375 75.7804 14.739C76.2831 15.0857 76.5344 15.5884 76.5344 16.247ZM73.2584 14.687C72.7557 14.687 72.1837 15.0424 71.5424 15.753C70.9011 16.4637 70.3117 17.391 69.7744 18.535C69.2371 19.6617 68.8384 20.823 68.5784 22.019C69.8091 21.4817 70.7624 20.901 71.4384 20.277C72.1317 19.653 72.6777 18.9424 73.0764 18.145C73.4751 17.3304 73.6744 16.4637 73.6744 15.545C73.6744 15.2157 73.6397 14.9904 73.5704 14.869C73.5011 14.7477 73.3971 14.687 73.2584 14.687ZM90.6546 23.787L90.0046 25.685C89.3806 27.4704 88.2192 28.363 86.5206 28.363C85.5499 28.363 84.8566 28.077 84.4406 27.505C84.2152 27.1757 84.1026 26.7684 84.1026 26.283C84.1026 25.7284 84.2412 25.0437 84.5186 24.229L86.8586 17.209C87.0146 16.741 87.0926 16.3684 87.0926 16.091C87.0926 15.6924 86.9279 15.493 86.5986 15.493C86.0786 15.493 85.4459 16.0217 84.7006 17.079C83.9726 18.1364 83.2359 19.5317 82.4906 21.265C81.7452 22.981 81.0952 24.7924 80.5406 26.699L80.2026 27.999H76.5366L79.6826 16.767C79.7866 16.455 79.8386 16.1777 79.8386 15.935C79.8386 15.623 79.6912 15.467 79.3966 15.467C79.0672 15.467 78.7726 15.623 78.5126 15.935C78.2699 16.2297 78.0099 16.7584 77.7326 17.521L77.2386 18.847H76.7446L77.4466 16.871C77.7759 15.9177 78.2179 15.233 78.7726 14.817C79.3272 14.401 80.0032 14.193 80.8006 14.193C82.2912 14.193 83.0366 14.9037 83.0366 16.325C83.0366 16.8104 82.9672 17.313 82.8286 17.833L82.0226 20.979C82.7332 19.211 83.4092 17.8417 84.0506 16.871C84.7092 15.883 85.3679 15.1897 86.0266 14.791C86.7026 14.3924 87.4479 14.193 88.2626 14.193C89.8226 14.193 90.6026 14.8864 90.6026 16.273C90.6026 16.793 90.4899 17.4084 90.2646 18.119L87.7166 25.789C87.6126 26.101 87.5606 26.3524 87.5606 26.543C87.5606 26.907 87.7252 27.089 88.0546 27.089C88.3319 27.089 88.6006 26.9417 88.8606 26.647C89.1379 26.3524 89.4152 25.815 89.6926 25.035L90.1606 23.787H90.6546ZM103.371 25.243C103.215 25.9017 103.137 26.3264 103.137 26.517C103.137 26.881 103.258 27.1237 103.501 27.245C103.761 27.3664 104.229 27.4444 104.905 27.479L104.801 27.999C103.796 27.947 102.383 27.921 100.563 27.921C98.7429 27.921 97.3822 27.947 96.4809 27.999L96.6109 27.479C97.2175 27.4444 97.6682 27.375 97.9629 27.271C98.2749 27.167 98.5175 26.9677 98.6909 26.673C98.8815 26.361 99.0635 25.8844 99.2369 25.243L102.669 12.347C102.808 11.7577 102.877 11.3417 102.877 11.099C102.877 10.7177 102.747 10.4664 102.487 10.345C102.244 10.2237 101.794 10.1457 101.135 10.111L101.265 9.59102C102.114 9.64302 103.475 9.66902 105.347 9.66902C107.063 9.66902 108.484 9.64302 109.611 9.59102L109.481 10.111C108.84 10.1457 108.363 10.215 108.051 10.319C107.756 10.423 107.514 10.6224 107.323 10.917C107.15 11.2117 106.976 11.6884 106.803 12.347L103.371 25.243ZM121.702 23.787L121.052 25.685C120.428 27.4704 119.267 28.363 117.568 28.363C116.598 28.363 115.904 28.077 115.488 27.505C115.263 27.1757 115.15 26.7684 115.15 26.283C115.15 25.7284 115.289 25.0437 115.566 24.229L117.906 17.209C118.062 16.741 118.14 16.3684 118.14 16.091C118.14 15.6924 117.976 15.493 117.646 15.493C117.126 15.493 116.494 16.0217 115.748 17.079C115.02 18.1364 114.284 19.5317 113.538 21.265C112.793 22.981 112.143 24.7924 111.588 26.699L111.25 27.999H107.584L110.73 16.767C110.834 16.455 110.886 16.1777 110.886 15.935C110.886 15.623 110.739 15.467 110.444 15.467C110.115 15.467 109.82 15.623 109.56 15.935C109.318 16.2297 109.058 16.7584 108.78 17.521L108.286 18.847H107.792L108.494 16.871C108.824 15.9177 109.266 15.233 109.82 14.817C110.375 14.401 111.051 14.193 111.848 14.193C113.339 14.193 114.084 14.9037 114.084 16.325C114.084 16.8104 114.015 17.313 113.876 17.833L113.07 20.979C113.781 19.211 114.457 17.8417 115.098 16.871C115.757 15.883 116.416 15.1897 117.074 14.791C117.75 14.3924 118.496 14.193 119.31 14.193C120.87 14.193 121.65 14.8864 121.65 16.273C121.65 16.793 121.538 17.4084 121.312 18.119L118.764 25.789C118.66 26.101 118.608 26.3524 118.608 26.543C118.608 26.907 118.773 27.089 119.102 27.089C119.38 27.089 119.648 26.9417 119.908 26.647C120.186 26.3524 120.463 25.815 120.74 25.035L121.208 23.787H121.702ZM131.709 14.713C130.86 14.713 130.028 15.181 129.213 16.117C128.416 17.0357 127.766 18.249 127.263 19.757C126.76 21.2477 126.509 22.7817 126.509 24.359C126.509 26.0924 127.168 26.959 128.485 26.959C129.733 26.959 130.877 26.1964 131.917 24.671L132.437 24.879C131.813 25.8844 131.016 26.7164 130.045 27.375C129.092 28.0337 128 28.363 126.769 28.363C125.504 28.363 124.49 28.025 123.727 27.349C122.982 26.673 122.609 25.6764 122.609 24.359C122.609 22.8684 122.982 21.3344 123.727 19.757C124.472 18.1624 125.521 16.8364 126.873 15.779C128.225 14.7217 129.759 14.193 131.475 14.193C132.428 14.193 133.191 14.4357 133.763 14.921C134.352 15.389 134.647 15.9784 134.647 16.689C134.647 17.157 134.534 17.6164 134.309 18.067C134.084 18.5177 133.772 18.8817 133.373 19.159C132.974 19.4364 132.541 19.575 132.073 19.575C131.64 19.575 131.284 19.4364 131.007 19.159C130.73 18.8817 130.591 18.5177 130.591 18.067C130.591 17.391 130.825 16.793 131.293 16.273C131.761 15.7357 132.316 15.389 132.957 15.233C132.662 14.8864 132.246 14.713 131.709 14.713Z" fill="#A9B0CB"></path></svg>