<svg xmlns="http://www.w3.org/2000/svg" width="145" height="34" viewBox="0 0 145 34" fill="none"><path d="M14.2885 7.71502H24.7995V10.337H17.1865V14.615H24.3625V17.237H17.1865V23.999H14.2885V7.71502ZM35.5047 7.71502H38.0117L45.0267 23.999H41.7147L40.1967 20.273H33.1357L31.6637 23.999H28.4207L35.5047 7.71502ZM39.1847 17.789L36.6777 11.165L34.1247 17.789H39.1847ZM50.8363 7.71502H56.4943C57.2763 7.71502 58.0277 7.79169 58.7483 7.94502C59.4843 8.08302 60.136 8.32836 60.7033 8.68102C61.2707 9.03369 61.723 9.50902 62.0603 10.107C62.3977 10.705 62.5663 11.464 62.5663 12.384C62.5663 13.5647 62.2367 14.5537 61.5773 15.351C60.9333 16.1484 60.0057 16.6314 58.7943 16.8L63.1183 23.999H59.6223L55.8503 17.099H53.7343V23.999H50.8363V7.71502ZM55.9883 14.615C56.4023 14.615 56.8163 14.5997 57.2303 14.569C57.6443 14.523 58.02 14.431 58.3573 14.293C58.71 14.1397 58.9937 13.9174 59.2083 13.626C59.423 13.3194 59.5303 12.8977 59.5303 12.361C59.5303 11.8857 59.4307 11.5024 59.2313 11.211C59.032 10.9197 58.7713 10.705 58.4493 10.567C58.1273 10.4137 57.767 10.314 57.3683 10.268C56.985 10.222 56.6093 10.199 56.2413 10.199H53.7343V14.615H55.9883ZM69.3236 7.71502H74.9816C75.7636 7.71502 76.515 7.79169 77.2356 7.94502C77.9716 8.08302 78.6233 8.32836 79.1906 8.68102C79.758 9.03369 80.2103 9.50902 80.5476 10.107C80.885 10.705 81.0536 11.464 81.0536 12.384C81.0536 13.5647 80.724 14.5537 80.0646 15.351C79.4206 16.1484 78.493 16.6314 77.2816 16.8L81.6056 23.999H78.1096L74.3376 17.099H72.2216V23.999H69.3236V7.71502ZM74.4756 14.615C74.8896 14.615 75.3036 14.5997 75.7176 14.569C76.1316 14.523 76.5073 14.431 76.8446 14.293C77.1973 14.1397 77.481 13.9174 77.6956 13.626C77.9103 13.3194 78.0176 12.8977 78.0176 12.361C78.0176 11.8857 77.918 11.5024 77.7186 11.211C77.5193 10.9197 77.2586 10.705 76.9366 10.567C76.6146 10.4137 76.2543 10.314 75.8556 10.268C75.4723 10.222 75.0966 10.199 74.7286 10.199H72.2216V14.615H74.4756ZM87.8109 7.71502H98.5979V10.337H90.7089V14.339H98.1839V16.961H90.7089V21.377H99.0119V23.999H87.8109V7.71502ZM105.871 7.71502H108.769V21.377H115.692V23.999H105.871V7.71502ZM121.798 7.71502H124.696V21.377H131.619V23.999H121.798V7.71502Z" fill="#A9B0CB"></path></svg>