<svg xmlns="http://www.w3.org/2000/svg" width="83" height="30" viewBox="0 0 83 30" fill="none"><path d="M7.78389 22.352C9.915 22.352 11.4416 21.9579 12.3637 21.1696C13.2858 20.3814 13.7367 19.2052 13.7162 17.6411L13.6547 10.2145C13.6342 8.98291 13.1527 8.05305 12.21 7.42493C11.2674 6.79681 9.85353 6.48275 7.96831 6.48275H0.683594V22.352H7.78389ZM6.92325 19.5439H6.00113V9.25387H6.58514C7.09742 9.25387 7.47652 9.28465 7.72241 9.34624C7.96831 9.40782 8.13737 9.5279 8.22958 9.70648C8.32179 9.88506 8.36789 10.1529 8.36789 10.5101V18.6941C8.36789 19.2607 7.88635 19.5439 6.92325 19.5439ZM26.5731 22.352V19.2668H21.0404V15.6274H26.0198V12.6346H21.0404V9.54945H26.235V6.48275H15.6614V22.352H26.5731ZM38.8768 22.352V19.6548H33.4363V6.48275H28.1495V22.352H38.8768ZM46.4776 22.4998C48.6087 22.4998 50.2276 22.1118 51.3341 21.3359C52.4407 20.56 52.9939 19.4577 52.9939 18.029V10.4732C52.9939 9.10607 52.4407 8.0746 51.3341 7.37875C50.2276 6.68289 48.6087 6.33496 46.4776 6.33496C44.3465 6.33496 42.7277 6.68289 41.6212 7.37875C40.5146 8.0746 39.9613 9.10607 39.9613 10.4732V18.029C39.9613 19.4454 40.5146 20.5446 41.6212 21.3267C42.7277 22.1087 44.3465 22.4998 46.4776 22.4998ZM46.4776 19.5809C45.9858 19.5809 45.6477 19.4639 45.4633 19.2299C45.2789 18.9959 45.1867 18.651 45.1867 18.1953V10.4547C45.1867 9.65414 45.6272 9.25387 46.5084 9.25387C46.9797 9.25387 47.2922 9.36163 47.4459 9.57716C47.5995 9.79269 47.6764 10.0729 47.6764 10.4177V18.1768C47.6764 18.6202 47.5944 18.9651 47.4305 19.2114C47.2666 19.4577 46.9489 19.5809 46.4776 19.5809ZM60.3796 22.4998C62.3468 22.4998 63.8017 22.0071 64.7443 21.0219L65.6357 22.352H67.7566V13.1149H61.3018V15.8491H62.7157V18.1214C62.7157 18.6017 62.6132 18.9651 62.4083 19.2114C62.2034 19.4577 61.8448 19.5809 61.3325 19.5809C60.8202 19.5809 60.4616 19.4577 60.2567 19.2114C60.0518 18.9651 59.9493 18.6017 59.9493 18.1214V10.4362C59.9493 9.64798 60.4514 9.25387 61.4554 9.25387C61.9062 9.25387 62.2187 9.35855 62.3929 9.56792C62.5671 9.7773 62.6542 10.0729 62.6542 10.4547V11.8772H67.818C67.818 10.6209 67.6336 9.59256 67.2648 8.79201C66.8959 7.99147 66.2299 7.38182 65.2669 6.96308C64.3038 6.54433 62.9513 6.33496 61.2095 6.33496C59.0579 6.33496 57.4391 6.7106 56.3531 7.46188C55.267 8.21316 54.724 9.3216 54.724 10.7872V17.6226C54.724 19.2607 55.1902 20.483 56.1225 21.2897C57.0549 22.0964 58.4739 22.4998 60.3796 22.4998ZM77.8471 22.352V17.1238L82.0582 6.48275H76.8328L75.3574 11.8587L73.882 6.48275H68.6567L72.8677 17.1238V22.352H77.8471Z" fill="#A9B0CB"></path><path d="M82.3567 -0.000976562H0.683594V2.63818H82.3567V-0.000976562Z" fill="#A9B0CB"></path><path d="M82.3567 26.3896H0.683594V29.0288H82.3567V26.3896Z" fill="#A9B0CB"></path></svg>