<svg xmlns="http://www.w3.org/2000/svg" id="a81c5255-ae47-4764-a479-5bd67c1f8f17" data-name="Layer 1" width="176.0565" height="193.0228" viewBox="0 0 176.0565 193.0228"><path d="M175.617,78.7633a152.2916,152.2916,0,0,0-34.739-43.9276A157.3048,157.3048,0,0,0,92.2954,5.8921C87.937,4.2272,83.5787,2.9465,79.0922,1.6658,74.2211.3851,68.5809-1.28,63.838,1.41c-8.0758,4.7385-6.4093,16.1367-3.7174,23.5647,3.5892,9.9893,9.614,18.8261,16.28,27.0225,6.5376,8.1964,13.46,16.0086,19.9971,24.2051,12.8187,16.2647,24.74,33.938,31.6617,53.661,1.539,4.226,3.205,9.093,3.59,13.319a22.4146,22.4146,0,0,1-.129,5.123,8.6051,8.6051,0,0,1-1.538,3.97,3.6493,3.6493,0,0,1-1.41,1.025,5.69,5.69,0,0,1-2.564.384c-2.435-.256-4.742-2.049-6.793-3.458-3.718-2.69-7.307-5.763-10.768-8.709-14.2288-12.423-26.9193-26.51-41.2762-38.677A143.9044,143.9044,0,0,0,44.2254,86.4475c-7.6911-4.2263-16.28-8.3245-25.2527-8.7087-4.1019-.1281-8.46.3842-11.9213,2.5614a14.6054,14.6054,0,0,0-7.05,11.5262c-.3845,5.2508,2.051,10.5016,4.7429,14.8556,2.82,4.611,6.0248,8.965,8.8449,13.576,10.2549,16.777,17.9461,37.268,10.1267,56.478a32.965,32.965,0,0,1-6.9221,10.758c-2.82,2.946,1.6665,7.556,4.4866,4.482,13.8441-14.728,14.3569-36.884,7.6912-54.941-3.7174-10.118-9.2295-19.467-15.2542-28.432-2.82-4.226-6.0248-8.452-7.1785-13.4468-.8973-3.714.3846-7.428,3.4611-9.221,2.9483-1.793,6.6657-1.921,10.1267-1.5368a39.8121,39.8121,0,0,1,11.5368,3.33A104.23,104.23,0,0,1,55.1213,101.432c14.87,11.142,27.4319,24.973,40.8915,37.652,3.461,3.202,6.9222,6.275,10.5112,9.349a132.0082,132.0082,0,0,0,11.537,8.965c4.23,2.689,9.87,4.226,14.485,1.28,3.589-2.305,4.999-6.403,5.512-10.373.513-4.226-.385-8.325-1.41-12.423a140.0314,140.0314,0,0,0-4.999-14.6,168.7142,168.7142,0,0,0-14.742-27.6627A304.0489,304.0489,0,0,0,98.0638,68.1336c-6.5375-8.0683-13.46-15.6244-19.7408-23.8208-5.7683-7.6842-11.5367-16.5209-13.7159-26.1261-.6409-3.2017-.7691-7.0438.8973-9.7332a4.5553,4.5553,0,0,1,3.7174-2.0492c2.3074-.128,4.7429.64,6.9221,1.1527a147.5489,147.5489,0,0,1,49.48,23.3085,150.2335,150.2335,0,0,1,37.558,39.3172,133.71,133.71,0,0,1,6.794,11.7824C172.027,85.6791,177.539,82.3493,175.617,78.7633Z" transform="translate(0.0391 0.0313)"></path></svg>