<svg xmlns="http://www.w3.org/2000/svg" width="162" height="33" viewBox="0 0 162 33" fill="none"><path d="M15.9437 6.62302C18.1091 6.47369 20.0224 6.39902 21.6837 6.39902C26.2944 6.39902 28.5997 7.93902 28.5997 11.019C28.5997 12.3257 28.2824 13.4924 27.6477 14.519C27.0131 15.5457 25.9211 16.227 24.3717 16.563L29.9717 25.999H27.3677L21.8797 16.731H18.2677V25.999H15.9437V6.62302ZM21.6837 6.67902C20.6011 6.67902 19.4624 6.74436 18.2677 6.87502V16.451H22.4117C25.0437 16.339 26.3597 14.547 26.3597 11.075C26.3597 9.65636 25.9677 8.57369 25.1837 7.82702C24.3997 7.06169 23.2331 6.67902 21.6837 6.67902ZM41.0827 26.111C39.1227 26.111 37.5267 25.551 36.2947 24.431C35.0627 23.311 34.4467 21.5844 34.4467 19.251C34.4467 16.9177 35.0814 15.107 36.3507 13.819C37.6387 12.531 39.2627 11.887 41.2227 11.887C43.2014 11.887 44.8067 12.447 46.0387 13.567C47.2707 14.687 47.8867 16.4137 47.8867 18.747C47.8867 21.0804 47.2427 22.891 45.9547 24.179C44.6854 25.467 43.0614 26.111 41.0827 26.111ZM41.2787 12.111C39.86 12.111 38.684 12.7457 37.7507 14.015C36.8174 15.2657 36.3507 17.0204 36.3507 19.279C36.3507 21.519 36.78 23.1804 37.6387 24.263C38.4974 25.3457 39.636 25.887 41.0547 25.887C42.4734 25.887 43.6494 25.2617 44.5827 24.011C45.516 22.7417 45.9827 20.987 45.9827 18.747C45.9827 16.4884 45.5534 14.8177 44.6947 13.735C43.836 12.6524 42.6974 12.111 41.2787 12.111ZM52.7747 19.503C52.7747 17.0764 53.3627 15.2004 54.5387 13.875C55.7147 12.5497 57.4787 11.887 59.8307 11.887C61.5667 11.887 63.3307 12.195 65.1227 12.811V26.335C65.104 30.7777 63.1627 32.999 59.2987 32.999C57.1707 32.999 55.3507 32.3084 53.8387 30.927L54.0347 30.759C55.64 32.103 57.3947 32.775 59.2987 32.775C61.8747 32.775 63.1627 30.6284 63.1627 26.335V23.563C62.808 24.2164 62.22 24.795 61.3987 25.299C60.5773 25.803 59.6067 26.055 58.4867 26.055C54.6787 25.9617 52.7747 23.7777 52.7747 19.503ZM58.5147 25.831C59.7653 25.831 60.8387 25.495 61.7347 24.823C62.6307 24.151 63.1067 23.4884 63.1627 22.835V12.951C61.8187 12.391 60.68 12.111 59.7467 12.111C58.0853 12.111 56.8347 12.7644 55.9947 14.071C55.1547 15.359 54.7347 17.1697 54.7347 19.503C54.7347 23.7217 55.9947 25.831 58.5147 25.831ZM83.17 25.999C82.4046 25.999 81.8166 25.831 81.406 25.495C81.014 25.159 80.8086 24.823 80.79 24.487L80.762 24.011V15.219C80.762 13.7444 80.37 12.8017 79.586 12.391C79.2126 12.2044 78.7366 12.111 78.158 12.111C77.0006 12.111 75.9553 12.587 75.022 13.539C74.1073 14.4724 73.65 15.3124 73.65 16.059V25.999H71.69V5.02702H73.65V15.191C73.9486 14.3884 74.518 13.6417 75.358 12.951C76.198 12.2417 77.1406 11.887 78.186 11.887C79.9966 11.887 81.2006 12.2044 81.798 12.839C82.414 13.455 82.722 14.2577 82.722 15.247V24.011C82.722 24.5524 82.8246 24.9724 83.03 25.271C83.254 25.551 83.4686 25.7004 83.674 25.719L84.01 25.775H84.878V25.999H83.17ZM112.416 25.999H101.776V6.39902H104.1V25.719H112.416V25.999ZM121.835 25.999H119.511V6.67902H114.667V6.39902H126.707V6.67902H121.835V25.999ZM134.553 6.42702C135.375 6.38969 136.177 6.37102 136.961 6.37102C137.764 6.37102 138.604 6.45502 139.481 6.62302C140.377 6.79102 141.255 7.10836 142.113 7.57502C142.991 8.02302 143.728 8.61102 144.325 9.33902C144.941 10.0484 145.436 10.991 145.809 12.167C146.183 13.343 146.369 14.771 146.369 16.451C146.369 18.131 146.089 19.643 145.529 20.987C144.988 22.3124 144.241 23.3297 143.289 24.039C141.441 25.4204 139.211 26.111 136.597 26.111C135.683 26.111 134.721 26.0737 133.713 25.999H132.313V6.42702H134.553ZM134.637 25.775C135.029 25.8124 135.524 25.831 136.121 25.831C136.719 25.831 137.167 25.8217 137.465 25.803C137.764 25.7844 138.175 25.7097 138.697 25.579C139.22 25.4297 139.705 25.2337 140.153 24.991C140.601 24.7484 141.068 24.3937 141.553 23.927C142.057 23.4417 142.487 22.8724 142.841 22.219C143.644 20.6884 144.045 18.691 144.045 16.227C144.045 14.4724 143.831 12.9604 143.401 11.691C142.972 10.403 142.477 9.45102 141.917 8.83502C141.376 8.21902 140.713 7.73369 139.929 7.37902C139.145 7.00569 138.52 6.79102 138.053 6.73502C137.587 6.67902 137.045 6.65102 136.429 6.65102C135.813 6.65102 135.216 6.67902 134.637 6.73502V25.775Z" fill="#A9B0CB"></path></svg>