<svg xmlns="http://www.w3.org/2000/svg" xmlns:xlink="http://www.w3.org/1999/xlink" width="188px" height="22px" viewBox="0 0 188 22"><title>Logo</title><g id="Symbols" stroke="none" stroke-width="1" fill="none" fill-rule="evenodd"><g id="Logo"><path d="M14.2632219,11.4344348 L10.3861808,11.4344348 L10.3861808,7.7366087 L18.7982356,7.7366087 L18.7982356,15.4852174 C17.6704685,16.2388696 16.3935644,16.8083478 14.9680438,17.1926087 C13.542263,17.5773913 12.0386603,17.7696522 10.4567151,17.7696522 C7.1353589,17.7696522 4.56255068,17.0081739 2.73776986,15.4852174 C0.912468493,13.9622609 -5.20547945e-05,11.8111304 -5.20547945e-05,9.03208696 C-5.20547945e-05,7.2266087 0.387756164,5.65252174 1.1633726,4.30982609 C1.93846849,2.96765217 3.07013973,1.93121739 4.55864658,1.20104348 C6.04689315,0.471130435 7.82482466,0.105913043 9.89270137,0.105913043 C12.2265781,0.105913043 14.1377699,0.577043478 15.6260164,1.51904348 C17.1140027,2.46130435 18.077537,3.79591304 18.5163589,5.52286957 L13.5818247,6.01747826 C13.2999479,5.29565217 12.8572219,4.77730435 12.2541671,4.46295652 C11.6508521,4.14913043 10.8244822,3.99208696 9.77531781,3.99208696 C8.22434521,3.99208696 7.04556438,4.41234783 6.23871507,5.25208696 C5.43160548,6.09208696 5.02870137,7.31269565 5.02870137,8.91443478 C5.02870137,10.5944348 5.46700274,11.8426957 6.3443863,12.6589565 C7.22150959,13.4754783 8.57675616,13.8837391 10.4096055,13.8837391 C11.8819753,13.8837391 13.1664274,13.6716522 14.2632219,13.2477391 L14.2632219,11.4344348 Z" id="Fill-1" fill="#A7B0A5"></path><path d="M21,17 L21,5.20236465 L25.4091733,5.20236465 L25.4091733,6.86509023 C26.5148021,5.62177971 27.9089216,5 29.5907764,5 C30.0602658,5 30.530007,5.04505289 31,5.13490977 L30.4997986,8.57311761 C29.984493,8.48301182 29.4918437,8.43820784 29.022606,8.43820784 C27.9164737,8.43820784 27.0374081,8.69309272 26.3861645,9.20236465 C26.0981774,9.42688239 25.878411,9.6892346 25.7271171,9.98867455 C25.5755714,10.2886123 25.4997986,10.5955196 25.4997986,10.9101431 L25.4997986,17 L21,17 Z" id="Fill-4" fill="#6C7C69" opacity="0.598377046"></path><path d="M41.744204,12.435194 L39.3256054,12.5053789 C38.2400824,12.5369751 37.4652241,12.657144 37,12.8676986 C36.5347759,13.0782532 36.3021638,13.4252929 36.3021638,13.9080405 C36.3021638,14.6565065 37.0151984,15.0304805 38.4420402,15.0304805 C38.9688305,15.0304805 39.4533745,14.9683242 39.8951571,14.8434935 C40.3371973,14.7189218 40.6978362,14.5394454 40.9768161,14.3058411 C41.488408,13.8694517 41.744204,13.3703881 41.744204,12.8091681 L41.744204,12.435194 Z M41.9070067,17.6493346 L41.9070067,16.1296119 C41.255796,16.7840665 40.5466255,17.2598215 39.7789799,17.5555821 C39.011592,17.8516017 38.1239052,18 37.1161772,18 C35.4726945,18 34.2091705,17.676269 33.3253478,17.029584 C32.4417826,16.382899 32,15.4513308 32,14.2356562 C32,12.9109491 32.5698094,11.9130807 33.7091705,11.2428281 C34.8485317,10.5728345 36.6280268,10.206371 39.0463679,10.1436967 L41.744204,10.0737708 L41.744204,9.53611842 C41.744204,9.03731373 41.5502318,8.65168539 41.1628027,8.37871544 C40.7751159,8.10600446 40.2246265,7.96951948 39.511592,7.96951948 C38.7982998,7.96951948 38.2127769,8.07078253 37.755796,8.27356761 C37.2982998,8.47609371 37.0151984,8.75683321 36.9070067,9.11526815 L32.7905719,8.81122002 C33.0850077,7.51759104 33.7941783,6.55908837 34.9185987,5.93519404 C36.0425039,5.31181767 37.6045853,5 39.6045853,5 C43.8681092,5 46,6.66009244 46,9.98027731 L46,17.6493346 L41.9070067,17.6493346 Z" id="Fill-6" fill="#6C7C69" opacity="0.598377046"></path><path d="M58.4556118,17 L58.4556118,10.279145 C58.4556118,9.59907457 58.2911333,9.10351746 57.9624303,8.79296507 C57.6332189,8.48241268 57.1166494,8.32713648 56.412976,8.32713648 C56.030379,8.32713648 55.6556627,8.39740387 55.2883187,8.53793866 C54.921229,8.67871914 54.5998983,8.87453421 54.324581,9.12562958 C53.8041982,9.58408747 53.5441339,10.1164981 53.5441339,10.7226158 L53.5441339,17 L49,17 L49,5.35502232 L53.4523615,5.35502232 L53.4523615,6.97412063 C54.7221768,5.658204 56.298324,5 58.1802945,5 C59.6949211,5 60.8767773,5.38819049 61.7261172,6.16432579 C62.5754571,6.94095246 63,8.03157119 63,9.43618197 L63,17 L58.4556118,17 Z" id="Fill-8" fill="#6C7C69" opacity="0.598377046"></path><path d="M76,16.4427986 C74.8289431,16.8141016 73.5736725,17 72.2331642,17 C70.5076791,17 69.255736,16.6511628 68.4778471,15.9525009 C67.6997021,15.2543327 67.3111416,14.1174641 67.3111416,12.5423888 L67.3111416,8.28524169 L65,8.28524169 L65,5.07584062 L67.3111416,5.07584062 L67.3111416,2 L71.8865826,2 L71.8865826,5.07584062 L75.4916461,5.07584062 L75.4916461,8.28524169 L71.8865826,8.28524169 L71.8865826,12.2305831 C71.8865826,12.750753 72.0212221,13.1331655 72.2910132,13.3783143 C72.5602923,13.6234632 72.995951,13.7459142 73.5964537,13.7459142 C74.1050635,13.7459142 74.7209243,13.6422258 75.4453158,13.4338617 L76,16.4427986 Z" id="Fill-10" fill="#6C7C69" opacity="0.598377046"></path><polygon id="Fill-12" fill="#6C7C69" points="84.9578975 11.3080002 84.9578975 17 80 17 80 1 94 1 94 4.7199547 84.9578975 4.7199547 84.9578975 7.5882937 93.5044456 7.5882937 93.5044456 11.3080002"></polygon><polygon id="Fill-14" fill="#6C7C69" points="95 17 100 17 100 1 95 1"></polygon><path d="M112.384438,11.4883665 C112.384438,10.4928012 112.13803,9.73016346 111.645979,9.20097045 C111.153673,8.67229448 110.438219,8.40756871 109.499872,8.40756871 C108.576862,8.40756871 107.864986,8.67229448 107.365268,9.20097045 C106.865038,9.73016346 106.615306,10.5005568 106.615306,11.511892 C106.615306,12.5077159 106.861203,13.2703536 107.353765,13.7990296 C107.845816,14.3282226 108.56127,14.5926898 109.499872,14.5926898 C110.422882,14.5926898 111.134247,14.3282226 111.634477,13.7990296 C112.134196,13.2703536 112.384438,12.4999602 112.384438,11.4883665 M117,11.4650996 C117,13.48777 116.322632,15.0825876 114.968918,16.2498111 C113.614948,17.416776 111.76126,18 109.407597,18 C107.053934,18 105.230663,17.4364237 103.938296,16.3082369 C102.645928,15.1800501 102,13.5968659 102,11.5584258 C102,9.5202442 102.676601,7.9174124 104.030571,6.75044744 C105.384285,5.58348248 107.238229,5 109.592148,5 C111.946066,5 113.769081,5.56435191 115.061449,6.69202164 C116.353561,7.82046693 117,9.41114823 117,11.4650996" id="Fill-16" fill="#6C7C69"></path><path d="M129.384438,11.4883665 C129.384438,10.4928012 129.13803,9.73016346 128.645979,9.20097045 C128.153673,8.67229448 127.438219,8.40756871 126.499872,8.40756871 C125.576862,8.40756871 124.864986,8.67229448 124.365268,9.20097045 C123.865038,9.73016346 123.615306,10.5005568 123.615306,11.511892 C123.615306,12.5077159 123.861203,13.2703536 124.353765,13.7990296 C124.845816,14.3282226 125.56127,14.5926898 126.499872,14.5926898 C127.422882,14.5926898 128.134247,14.3282226 128.634477,13.7990296 C129.134196,13.2703536 129.384438,12.4999602 129.384438,11.4883665 M134,11.4650996 C134,13.48777 133.322632,15.0825876 131.968918,16.2498111 C130.614948,17.416776 128.76126,18 126.407597,18 C124.053934,18 122.230663,17.4364237 120.938296,16.3082369 C119.645928,15.1800501 119,13.5968659 119,11.5584258 C119,9.5202442 119.676601,7.9174124 121.030571,6.75044744 C122.384285,5.58348248 124.238229,5 126.592148,5 C128.946066,5 130.769081,5.56435191 132.061449,6.69202164 C133.353561,7.82046693 134,9.41114823 134,11.4650996" id="Fill-17" fill="#6C7C69"></path><path d="M137,17 L137,5.20236465 L141.409173,5.20236465 L141.409173,6.86509023 C142.514802,5.62177971 143.908922,5 145.590776,5 C146.060266,5 146.530007,5.04505289 147,5.13490977 L146.499799,8.57311761 C145.984493,8.48301182 145.491844,8.43820784 145.022606,8.43820784 C143.916474,8.43820784 143.037408,8.69309272 142.386165,9.20236465 C142.098177,9.42688239 141.878411,9.6892346 141.727117,9.98867455 C141.575571,10.2886123 141.499799,10.5955196 141.499799,10.9101431 L141.499799,17 L137,17 Z" id="Fill-18" fill="#6C7C69"></path><path d="M148.024921,17 L152.974525,17 L152.974525,5.33340513 L148.024921,5.33340513 L148.024921,17 Z M148,3.88877265 L153,3.88877265 L153,1 L148,1 L148,3.88877265 Z" id="Fill-19" fill="#6C7C69"></path><path d="M165.455612,17 L165.455612,10.279145 C165.455612,9.59907457 165.291133,9.10351746 164.96243,8.79296507 C164.633219,8.48241268 164.116649,8.32713648 163.412976,8.32713648 C163.030379,8.32713648 162.655663,8.39740387 162.288319,8.53793866 C161.921229,8.67871914 161.599898,8.87453421 161.324581,9.12562958 C160.804198,9.58408747 160.544134,10.1164981 160.544134,10.7226158 L160.544134,17 L156,17 L156,5.35502232 L160.452361,5.35502232 L160.452361,6.97412063 C161.722177,5.658204 163.298324,5 165.180295,5 C166.694921,5 167.876777,5.38819049 168.726117,6.16432579 C169.575457,6.94095246 170,8.03157119 170,9.43618197 L170,17 L165.455612,17 Z" id="Fill-20" fill="#6C7C69"></path><path d="M183.469867,10.8335981 C183.469867,10.4542161 183.408168,10.1157255 183.285027,9.81964097 C183.161629,9.5235564 182.953491,9.23857815 182.661125,8.96521106 C182.183407,8.50934684 181.48219,8.28141472 180.557731,8.28141472 C179.633271,8.28141472 178.916694,8.50934684 178.408254,8.96521106 C177.899814,9.42082288 177.645594,10.0816493 177.645594,10.9476904 C177.645594,11.7985865 177.891878,12.4594129 178.385213,12.9304221 C178.878036,13.4014314 179.578997,13.6364311 180.488351,13.6364311 C181.351368,13.6364311 182.07537,13.3860339 182.661125,12.8847347 C183.200031,12.4288705 183.469867,11.8364489 183.469867,11.1072176 L183.469867,10.8335981 Z M183.423785,15.0494588 C182.344951,16.2499517 180.819375,16.8499458 178.847314,16.8499458 C177.722398,16.8499458 176.721135,16.6144412 175.842757,16.143432 C174.96438,15.6726752 174.270844,14.9964513 173.762404,14.1152653 C173.25422,13.2343316 173,12.2087633 173,11.0385603 C173,9.8842596 173.25422,8.8511188 173.762404,7.93964276 C174.270844,7.02816671 174.998942,6.31029414 175.946698,5.78602503 C176.894199,5.26200834 177.999915,5 179.263334,5 C180.218771,5 181.043129,5.14034358 181.73641,5.42153558 C182.429947,5.70272758 183.02287,6.13915574 183.516206,6.73182972 L183.516206,5.36448945 L188,5.36448945 L188,15.5282929 C188,17.7460244 187.402724,19.3791593 186.208684,20.4276975 C185.014644,21.4757309 183.161629,22 180.650151,22 C178.446656,22 176.763377,21.6541894 175.600058,20.9630729 C174.436483,20.2717041 173.762404,19.2118072 173.577563,17.7841393 L177.992234,17.7841393 C178.115376,18.2094612 178.381117,18.5209431 178.789712,18.7183329 C179.197795,18.915975 179.810176,19.0146699 180.62711,19.0146699 C181.582291,19.0146699 182.287348,18.7869902 182.741769,18.3311259 C183.196191,17.8752617 183.423785,17.1690003 183.423785,16.2118368 L183.423785,15.0494588 Z" id="Fill-21" fill="#6C7C69"></path></g></g></svg>