<svg xmlns="http://www.w3.org/2000/svg" width="95" height="95" viewBox="0 0 95 95" fill="none"><circle cx="47.5" cy="47.5" r="47.5" fill="#FF981F"></circle><path d="M73.8779 31.375H67.9848L53.5258 45.8277C54.0238 47.0968 54.0696 48.4988 53.6555 49.7977C53.2413 51.0967 52.3926 52.2135 51.2519 52.9603C50.1113 53.707 48.7483 54.0383 47.3921 53.8983C46.0359 53.7583 44.7693 53.1556 43.8053 52.1915C42.8412 51.2275 42.2385 49.9608 42.0985 48.6047C41.9585 47.2485 42.2898 45.8855 43.0365 44.7448C43.7833 43.6042 44.9001 42.7554 46.199 42.3413C47.498 41.9272 48.8999 41.973 50.1691 42.471L64.6249 28.0152V22.122C64.6252 21.3334 64.9384 20.5772 65.4957 20.0193L70.9741 14.541C71.0753 14.4387 71.2025 14.366 71.3421 14.3308C71.4816 14.2957 71.6281 14.2993 71.7657 14.3415C72.0476 14.4238 72.2566 14.6582 72.3136 14.9463L73.7702 22.2328L81.0536 23.6895C81.3386 23.7465 81.5729 23.9555 81.6552 24.2373C81.6968 24.3742 81.7005 24.5199 81.666 24.6587C81.6314 24.7975 81.5598 24.9244 81.4589 25.0258L75.9774 30.5042C75.7019 30.7802 75.3746 30.9992 75.0144 31.1486C74.6541 31.298 74.2679 31.375 73.8779 31.375Z" fill="white"></path><path d="M18.3125 48C18.3125 55.8736 21.4403 63.4247 27.0078 68.9922C32.5753 74.5597 40.1264 77.6875 48 77.6875C51.8986 77.6875 55.7591 76.9196 59.3609 75.4277C62.9628 73.9357 66.2355 71.749 68.9922 68.9922C71.749 66.2355 73.9357 62.9628 75.4277 59.3609C76.9196 55.759 77.6875 51.8986 77.6875 48C77.6875 45.1563 77.2885 42.4077 76.5443 39.8078C76.3964 39.2109 76.4858 38.5798 76.7937 38.0475C77.1016 37.5151 77.6041 37.1229 78.1953 36.9535C78.7865 36.784 79.4203 36.8505 79.9635 37.139C80.5067 37.4274 80.9168 37.9153 81.1075 38.5C81.9752 41.521 82.4375 44.7067 82.4375 48C82.4375 67.019 67.019 82.4375 48 82.4375C28.981 82.4375 13.5625 67.019 13.5625 48C13.5625 28.981 28.981 13.5625 48 13.5625C51.2142 13.5593 54.4093 14.0058 57.5 14.8893C57.8013 14.9739 58.083 15.1171 58.3288 15.3109C58.5746 15.5046 58.7797 15.745 58.9323 16.0183C59.0848 16.2916 59.1819 16.5923 59.2178 16.9032C59.2538 17.2141 59.2279 17.5291 59.1417 17.83C59.0556 18.1309 58.9108 18.4117 58.7157 18.6565C58.5206 18.9012 58.279 19.105 58.0049 19.2561C57.7308 19.4071 57.4296 19.5025 57.1185 19.5368C56.8074 19.571 56.4926 19.5435 56.1922 19.4557C53.528 18.6948 50.7706 18.31 48 18.3125C40.1264 18.3125 32.5753 21.4403 27.0078 27.0078C21.4403 32.5752 18.3125 40.1264 18.3125 48Z" fill="white"></path><path d="M32.5625 48C32.5713 50.0974 33.0076 52.1709 33.8445 54.0941C34.6815 56.0172 35.9016 57.7496 37.4305 59.1854C38.9593 60.6213 40.7647 61.7305 42.7365 62.4453C44.7083 63.1601 46.8052 63.4655 48.8989 63.3429C50.9927 63.2203 53.0396 62.6722 54.9145 61.7322C56.7894 60.7921 58.453 59.4798 59.8038 57.8753C61.1546 56.2709 62.1642 54.4079 62.771 52.4002C63.3778 50.3925 63.569 48.2822 63.333 46.1982C63.2665 45.7761 63.3154 45.3439 63.4746 44.9474C63.6337 44.5508 63.8971 44.2047 64.237 43.9457C64.5768 43.6867 64.9804 43.5244 65.4049 43.4761C65.8294 43.4278 66.2592 43.4952 66.6485 43.6712C67.4433 44.0258 67.9785 44.7827 68.0482 45.6503C68.5399 49.8153 67.7218 54.03 65.7076 57.7085C63.6935 61.3871 60.5834 64.3468 56.8096 66.1762C53.0358 68.0057 48.7857 68.614 44.6503 67.9166C40.5148 67.2192 36.6993 65.2507 33.7342 62.2849C30.7698 59.3222 28.8009 55.5105 28.1004 51.3785C27.4 47.2464 28.0027 42.9988 29.825 39.2247C31.6473 35.4506 34.5989 32.3371 38.2704 30.316C41.9419 28.295 46.1513 27.4665 50.3148 27.9455C50.6296 27.9747 50.9353 28.0665 51.2142 28.2154C51.493 28.3643 51.7393 28.5673 51.9387 28.8127C52.138 29.058 52.2863 29.3406 52.375 29.644C52.4637 29.9475 52.4909 30.2655 52.4551 30.5796C52.4193 30.8936 52.3211 31.1974 52.1664 31.473C52.0116 31.7487 51.8034 31.9906 51.5539 32.1848C51.3044 32.3789 51.0187 32.5212 50.7135 32.6035C50.4083 32.6858 50.0897 32.7063 49.7765 32.6638C47.6138 32.4138 45.4226 32.624 43.3468 33.2805C41.271 33.9371 39.3575 35.0252 37.7319 36.4734C36.1063 37.9217 34.8054 39.6974 33.9145 41.6839C33.0236 43.6704 32.5628 45.8229 32.5625 48Z" fill="white"></path></svg>